#!OML:ASF H:\Dans Jumps\Project 1\Capture day 1\Session 1\subject.ASF
:FULLY-SPECIFIED
:DEGREES
593
root -0.000957026 16.268 -9.31533 7.05627 0.538206 -1.7726
lowerback 12.5053 0.412701 -0.0558494
upperback 7.66908 0.548246 2.04272
thorax 1.0024 0.226766 2.0924
lowerneck -13.8703 0.18877 -1.09671
upperneck 22.9211 0.242284 1.16541
head 9.52 0.148433 0.617471
rclavicle 1.03368e-014 1.31198e-014
rhumerus -15.8167 -11.2415 -83.1141
rradius 23.3045
rwrist 33.5473
rhand -20.748 -29.6232
rfingers 7.12502
rthumb 5.61768 -59.5288
lclavicle 1.03368e-014 1.31198e-014
lhumerus -12.8893 7.69009 89.436
lradius 15.6998
lwrist 12.9216
lhand -32.6925 -8.65797
lfingers 7.12502
lthumb -5.91733 21.2394
rfemur -39.6677 -4.95976 21.4228
rtibia 55.2256
rfoot -20.7713 -3.01934
rtoes 4.8652
lfemur -39.8674 5.76987 -17.307
ltibia 53.6088
lfoot -17.0069 8.77097
ltoes -2.4086
594
root 0.000285446 16.2957 -9.28858 7.24241 0.477731 -1.82687
lowerback 12.4907 0.44119 -0.0284833
upperback 7.64106 0.588607 2.0644
thorax 0.979242 0.247511 2.09482
lowerneck -13.8936 0.163608 -1.09144
upperneck 23.0456 0.186119 1.24329
head 9.5688 0.131472 0.637487
rclavicle 1.15295e-014 2.78299e-014
rhumerus -15.8136 -11.1657 -83.0968
rradius 23.2972
rwrist 33.3972
rhand -20.4161 -29.4351
rfingers 7.12502
rthumb 5.93813 -59.3319
lclavicle 1.15295e-014 2.78299e-014
lhumerus -12.841 6.6747 89.696
lradius 15.9565
lwrist 13.3036
lhand -32.6846 -8.66553
lfingers 7.12502
lthumb -5.90976 21.232
rfemur -39.5058 -4.82362 21.4781
rtibia 54.7792
rfoot -20.7211 -3.13594
rtoes 4.88279
lfemur -39.7327 5.76755 -17.2555
ltibia 53.2315
lfoot -16.9716 8.83631
ltoes -2.28005
595
root 0.00306624 16.3314 -9.26261 7.53799 0.421183 -1.87187
lowerback 12.3692 0.462432 0.0123074
upperback 7.58975 0.619989 2.07611
thorax 0.9894 0.264426 2.08068
lowerneck -13.8871 0.140765 -1.08644
upperneck 23.1373 0.136625 1.30645
head 9.60047 0.115972 0.653008
rclavicle 4.57205e-015 3.18055e-015
rhumerus -15.8583 -10.9218 -83.1151
rradius 23.4246
rwrist 33.1075
rhand -20.0844 -29.2306
rfingers 7.12502
rthumb 6.25833 -59.1181
lclavicle 4.57205e-015 3.18055e-015
lhumerus -12.8478 5.54991 89.9454
lradius 16.3091
lwrist 13.5056
lhand -32.4306 -8.62936
lfingers 7.12502
lthumb -5.66444 21.2749
rfemur -39.4284 -4.65339 21.517
rtibia 54.2506
rfoot -20.5781 -3.22501
rtoes 5.0241
lfemur -39.6518 5.75926 -17.2247
ltibia 52.7242
lfoot -16.8895 8.83775
ltoes -2.05748
596
root 0.00722682 16.3747 -9.23722 7.91638 0.363664 -1.87987
lowerback 12.1603 0.476422 0.0355677
upperback 7.52706 0.639192 2.06985
thorax 1.03501 0.274996 2.05955
lowerneck -13.8549 0.122877 -1.07899
upperneck 23.1811 0.0983156 1.34992
head 9.61033 0.103638 0.662302
rclavicle -4.96962e-015 -9.14409e-015
rhumerus -15.9335 -10.5525 -83.1695
rradius 23.6676
rwrist 32.7307
rhand -19.7872 -29.0031
rfingers 7.12502
rthumb 6.54526 -58.882
lclavicle -4.96962e-015 -9.14409e-015
lhumerus -12.8994 4.4049 90.1711
lradius 16.7455
lwrist 13.5241
lhand -31.9707 -8.52866
lfingers 7.12502
lthumb -5.22039 21.387
rfemur -39.4172 -4.48214 21.5149
rtibia 53.6541
rfoot -20.3503 -3.28049
rtoes 5.23634
lfemur -39.5972 5.74339 -17.2419
ltibia 52.092
lfoot -16.7619 8.77657
ltoes -1.74774
